<svg width="512" height="512" viewBox="0 0 100 100" fill="none" xmlns="http://www.w3.org/2000/svg">
  <rect width="100" height="100" rx="20" fill="#0a0a0a"/>
  <g transform="translate(0, 5)">
    <!-- Bars (Teal) -->
    <rect x="10" y="55" width="8" height="35" rx="1.5" fill="#12b5b0" />
    <rect x="22" y="45" width="8" height="45" rx="1.5" fill="#12b5b0" />
    <rect x="34" y="35" width="8" height="55" rx="1.5" fill="#12b5b0" />
    <rect x="46" y="48" width="8" height="42" rx="1.5" fill="#12b5b0" />
    <rect x="58" y="52" width="8" height="38" rx="1.5" fill="#12b5b0" />
    <rect x="70" y="70" width="8" height="20" rx="1.5" fill="#12b5b0" />
    <rect x="82" y="55" width="8" height="35" rx="1.5" fill="#12b5b0" />
    
    <!-- Line Chart (Grey) -->
    <path d="M10 45 L22 35 L34 25 L46 38 L58 48 L70 60 L82 50" stroke="#808080" stroke-width="2" stroke-linecap="round" stroke-linejoin="round" />
    
    <!-- Dots on Line -->
    <circle cx="10" cy="45" r="2.5" fill="#808080" />
    <circle cx="22" cy="35" r="2.5" fill="#808080" />
    <circle cx="34" cy="25" r="2.5" fill="#808080" />
    <circle cx="46" cy="38" r="2.5" fill="#808080" />
    <circle cx="58" cy="48" r="2.5" fill="#808080" />
    <circle cx="70" cy="60" r="2.5" fill="#808080" />
    <circle cx="82" cy="50" r="2.5" fill="#808080" />
  </g>
</svg>
